<?xml version="1.0" standalone="no"?>
<!DOCTYPE svg PUBLIC "-//W3C//DTD SVG 1.1//EN" "http://www.w3.org/Graphics/SVG/1.1/DTD/svg11.dtd" >
<svg xmlns="http://www.w3.org/2000/svg">
<metadata></metadata>
<defs>
<font id="dharma_gothic_clight_italic" horiz-adv-x="362" >
<font-face units-per-em="2048" ascent="1638" descent="-410" />
<missing-glyph horiz-adv-x="169" />
<glyph unicode="&#xfb01;" d="M-27 0l158 1143h-47l10 61h47l15 111q9 68 35 93.5t88 25.5h30l-8 -58h-16q-32 0 -44 -11.5t-18 -53.5l-16 -107h69l-10 -61h-67l-158 -1143h-68zM164 0l168 1204h67l-168 -1204h-67zM350 1331l15 103h67l-14 -103h-68z" />
<glyph unicode="&#xfb02;" d="M-27 0l158 1143h-47l10 61h47l15 111q9 68 35 93.5t88 25.5h30l-8 -58h-16q-32 0 -44 -11.5t-18 -53.5l-16 -107h69l-10 -61h-67l-158 -1143h-68zM164 0l201 1434h67l-201 -1434h-67z" />
<glyph horiz-adv-x="0" />
<glyph horiz-adv-x="682" />
<glyph unicode=" "  horiz-adv-x="169" />
<glyph unicode="&#x09;" horiz-adv-x="169" />
<glyph unicode="&#xa0;" horiz-adv-x="169" />
<glyph unicode="!" horiz-adv-x="172" d="M-37 0l12 104h78l-12 -104h-78zM2 174l100 803l64 457h74l-64 -457l-129 -803h-45z" />
<glyph unicode="&#x22;" horiz-adv-x="262" d="M102 1028l25 268l20 138h70l-20 -138l-47 -268h-48zM231 1028l25 268l20 138h70l-20 -138l-47 -268h-48z" />
<glyph unicode="#" d="M-41 0l53 301h-41l11 61h41l133 758h-43l10 62h43l45 252h61l-47 -252h101l45 252h59l-45 -252h45l-10 -62h-45l-133 -758h45l-11 -61h-45l-53 -301h-59l53 301h-100l-52 -301h-61zM84 362h98l133 758h-100z" />
<glyph unicode="$" d="M-14 166l53 387h65l-53 -373q-6 -44 1.5 -59t43.5 -15h27q35 0 46 14.5t17 59.5l37 254q11 78 2.5 124t-53.5 132q-59 106 -71 165t3 163l37 250q11 73 35 98.5t88 26.5l12 92h58l-12 -92q62 -2 80 -27.5t8 -97.5l-54 -373h-65l51 358q6 44 -1 59t-42 15h-27 q-36 0 -47 -14.5t-18 -59.5l-35 -256q-11 -78 -2 -126t53 -130q60 -109 70.5 -167.5t-4.5 -159.5l-33 -248q-10 -71 -36 -97t-87 -28l-14 -92h-58l13 92q-63 0 -81 26t-7 99z" />
<glyph unicode="%" horiz-adv-x="628" d="M41 631l100 721q8 53 29 72.5t70 19.5h36q49 0 63.5 -19.5t6.5 -72.5l-102 -721q-8 -53 -26.5 -71.5t-67.5 -18.5h-37q-49 0 -64 18.5t-8 71.5zM95.5 603q5.5 -11 31.5 -11h18q27 0 35 10t13 43l96 694q6 31 0.5 42.5t-31.5 11.5h-16q-27 0 -35.5 -11t-13.5 -43l-97 -694 q-6 -31 -0.5 -42zM109 0l417 1434h29l-420 -1434h-26zM315 80l101 721q8 53 28.5 72.5t69.5 19.5h37q49 0 63.5 -19.5t6.5 -72.5l-103 -721q-8 -53 -26.5 -71.5t-67.5 -18.5h-37q-49 0 -64 18.5t-8 71.5zM370 52q5 -11 31 -11h19q26 0 34 10t13 43l96 694q6 31 0.5 42.5 t-31.5 11.5h-16q-27 0 -35.5 -11t-13.5 -43l-96 -694q-6 -31 -1 -42z" />
<glyph unicode="&#x26;" horiz-adv-x="391" d="M-29 100l72 518q8 60 26.5 89t57.5 38q-37 9 -47 39t0 90l59 426q10 78 40 106t102 28h100l-10 -68h-88q-39 0 -52.5 -16.5t-19.5 -63.5l-59 -426q-6 -49 2 -64.5t47 -15.5h75l62 434h68l-62 -434h64l-11 -67h-63l-80 -572q-13 -83 -4 -141h-68q-6 13 -2 72 q-26 -82 -108 -82h-23q-56 0 -71.5 23.5t-6.5 86.5zM49 74q8 -17 41 -17h23q62 0 75 93l80 563h-78q-39 0 -52 -16t-19 -64l-70 -502q-8 -40 0 -57z" />
<glyph unicode="'" horiz-adv-x="180" d="M127 1028l25 268l20 138h70l-21 -138l-47 -268h-47z" />
<glyph unicode="(" horiz-adv-x="227" d="M-41 -25l191 1360q11 69 36 94t88 25h48l-9 -57h-34q-35 0 -46.5 -15t-17.5 -59l-186 -1335q-6 -44 1 -59t42 -15h34l-8 -57h-47q-64 0 -83.5 25t-8.5 93z" />
<glyph unicode=")" horiz-adv-x="227" d="M-78 -143l6 57h35q35 0 46.5 15t17.5 59l186 1335q6 44 -1 59t-42 15h-35l8 57h50q63 0 82 -25.5t8 -93.5l-191 -1360q-11 -68 -36 -93t-87 -25h-47z" />
<glyph unicode="*" horiz-adv-x="323" d="M96 1223l131 53l-114 53l39 51l92 -80l6 134h59l-35 -134l119 80l23 -51l-133 -53l116 -53l-37 -52l-94 80l-4 -133h-61l35 133l-117 -80z" />
<glyph unicode="+" d="M55 686l8 62h109l16 116h60l-17 -116h107l-8 -62h-107l-18 -117h-60l19 117h-109z" />
<glyph unicode="," horiz-adv-x="180" d="M-51 -133l61 133h-43l15 111h77l-14 -111l-88 -137z" />
<glyph unicode="-" horiz-adv-x="235" d="M20 551l11 65h178l-10 -65h-179z" />
<glyph unicode="." horiz-adv-x="180" d="M-33 0l15 111h77l-14 -111h-78z" />
<glyph unicode="/" d="M-68 -41l463 1516h68l-463 -1516h-68z" />
<glyph unicode="0" d="M-25 115l168 1204q11 72 38 98.5t93 26.5h52q64 0 83.5 -26.5t8.5 -98.5l-170 -1204q-11 -73 -37 -99t-90 -26h-51q-66 0 -86 26.5t-9 98.5zM47 129q-6 -44 1 -59t42 -15h27q35 0 46 14.5t17 59.5l166 1176q6 44 -1.5 58.5t-43.5 14.5h-25q-36 0 -47.5 -14.5t-17.5 -58.5 z" />
<glyph unicode="1" horiz-adv-x="172" d="M-31 0l197 1399q12 0 25 11t16 24h33l-201 -1434h-70z" />
<glyph unicode="2" horiz-adv-x="350" d="M-45 0l33 242q19 138 51 218.5t123 211.5q78 114 104 181.5t41 186.5l37 265q6 44 -1.5 58.5t-43.5 14.5h-25q-36 0 -47.5 -14.5t-17.5 -58.5l-62 -439h-65l63 453q11 72 38 98.5t93 26.5h48q65 0 84 -26t8 -99l-37 -272q-19 -135 -50.5 -213t-123.5 -216 q-77 -114 -104 -183t-42 -187l-26 -182h211l-8 -66h-281z" />
<glyph unicode="3" horiz-adv-x="354" d="M-27 115l70 499h66l-68 -485q-6 -44 1 -59t42 -15h27q35 0 46 14.5t17 59.5l74 520q6 43 -1.5 57.5t-43.5 14.5h-103l9 65h104q35 0 46 14.5t17 59.5l64 445q6 44 -1.5 58.5t-43.5 14.5h-25q-36 0 -47.5 -14.5t-17.5 -58.5l-58 -410h-65l59 424q11 72 38.5 98.5 t94.5 26.5h45q65 0 84.5 -26t8.5 -99l-64 -447q-8 -56 -24.5 -82.5t-51.5 -35.5q33 -7 42 -34t1 -83l-73 -522q-11 -73 -36.5 -99t-90.5 -26h-45q-67 0 -87.5 26.5t-9.5 98.5z" />
<glyph unicode="4" horiz-adv-x="337" d="M-35 295l10 55l330 1084h78l-150 -1080h66l-10 -59h-66l-41 -295h-69l41 295h-189zM35 354h129l53 383q36 263 76 492q-107 -380 -141 -490z" />
<glyph unicode="5" horiz-adv-x="354" d="M-25 115l70 499h66l-68 -485q-6 -44 1 -59t42 -15h27q35 0 46 14.5t17 59.5l119 838q5 40 -1 53.5t-38 13.5h-25q-60 0 -73 -88l-31 -217h-66l99 705h258l-10 -66h-191l-47 -328q29 56 96 56h29q50 0 66 -23.5t8 -81.5l-125 -876q-11 -73 -36.5 -99t-90.5 -26h-47 q-66 0 -86 26.5t-9 98.5z" />
<glyph unicode="6" horiz-adv-x="360" d="M-25 115l168 1204q11 72 38 98.5t93 26.5h48q65 0 84 -26t8 -99l-37 -266h-66l35 252q6 44 -1.5 58.5t-43.5 14.5h-25q-36 0 -47.5 -14.5t-17.5 -58.5l-53 -383q29 57 96 57h29q50 0 65.5 -23.5t7.5 -81.5l-108 -759q-11 -73 -36.5 -99t-90.5 -26h-51q-66 0 -86 26.5 t-9 98.5zM47 129q-6 -44 1 -59t42 -15h27q35 0 46 14.5t17 59.5l103 719q5 42 -1 56t-38 14h-25q-63 0 -76 -89z" />
<glyph unicode="7" horiz-adv-x="294" d="M-23 0l353 1368h-213l8 66h278l-8 -58l-340 -1376h-78z" />
<glyph unicode="8" horiz-adv-x="358" d="M-27 115l76 536q8 56 24 83t50 34q-33 9 -41.5 36.5t0.5 82.5l59 432q11 73 37.5 99t93.5 26h52q64 0 83.5 -26.5t8.5 -98.5l-60 -432q-8 -56 -25 -83t-52 -36q33 -7 43 -34.5t2 -82.5l-78 -536q-11 -73 -37 -99t-90 -26h-51q-67 0 -86.5 26t-8.5 99zM45 129 q-6 -44 1 -59t42 -15h27q35 0 46 14.5t17 59.5l76 535q6 44 -1 58.5t-42 14.5h-27q-35 0 -46 -14.5t-17 -58.5zM150 874q-6 -43 1.5 -57t43.5 -14h24q36 0 48 14t18 57l59 431q6 44 -1.5 58.5t-43.5 14.5h-25q-36 0 -47.5 -14.5t-17.5 -58.5z" />
<glyph unicode="9" horiz-adv-x="360" d="M-23 115l39 286h66l-37 -272q-6 -44 1 -59t42 -15h27q35 0 46 14.5t17 59.5l55 399q-26 -53 -92 -53h-28q-50 0 -66 23.5t-8 81.5l102 739q11 72 38 98.5t93 26.5h52q65 0 84 -26t8 -99l-170 -1204q-11 -73 -36.5 -99t-90.5 -26h-47q-66 0 -86 26.5t-9 98.5zM112 552.5 q7 -15.5 38 -15.5h26q62 0 72 88l96 680q6 44 -1.5 58.5t-43.5 14.5h-25q-36 0 -47.5 -14.5t-17.5 -58.5l-96 -699q-8 -38 -1 -53.5z" />
<glyph unicode=":" horiz-adv-x="180" d="M-33 0l15 111h77l-14 -111h-78zM86 848l14 110h78l-14 -110h-78z" />
<glyph unicode=";" horiz-adv-x="180" d="M-51 -133l61 133h-43l15 111h77l-14 -111l-88 -137zM86 848l14 110h78l-14 -110h-78z" />
<glyph unicode="&#x3c;" d="M59 717l201 137h94l-204 -141l161 -133h-90z" />
<glyph unicode="=" d="M43 598l8 61h275l-9 -61h-274zM68 774l8 62h274l-8 -62h-274z" />
<glyph unicode="&#x3e;" d="M39 580l205 141l-160 133h88l162 -137l-199 -137h-96z" />
<glyph unicode="?" horiz-adv-x="323" d="M16 0l19 139h80l-19 -139h-80zM55 205l21 151q14 102 37 183.5t47.5 134.5t49 102t45.5 114.5t32 145.5l39 269q6 44 -1.5 58.5t-43.5 14.5h-25q-36 0 -48 -14.5t-18 -58.5l-61 -439h-66l64 453q11 73 37.5 99t93.5 26h45q66 0 85.5 -26.5t8.5 -98.5l-39 -277 q-12 -87 -35 -157.5t-49.5 -121.5t-53 -103.5t-50.5 -130t-37 -173.5l-20 -151h-58z" />
<glyph unicode="@" horiz-adv-x="573" d="M-15 127q0 52 9 117l104 741q16 114 42.5 190t66 117.5t84 57.5t106.5 16h15q124 0 161.5 -89.5t8.5 -301.5l-86 -615q-13 -88 -33.5 -147.5t-46.5 -87.5t-50 -38.5t-53 -10.5h-8q-57 0 -57 51q-24 -51 -76 -51h-12q-59 0 -43 76l159 925q15 70 72 70h17q23 0 36 -15.5 t13 -39.5l16 47h35l-172 -979q-6 -37 22 -37h11q14 0 25.5 3.5t27 18t28 40t25 72t21.5 110.5l84 608q28 191 -1 268.5t-130 77.5h-15q-50 0 -85 -13t-66.5 -48.5t-53.5 -103t-36 -171.5l-107 -749q-8 -58 -8 -104.5t6.5 -79t21 -55.5t31 -36.5t40 -21.5t45.5 -10.5t50 -2.5 q68 0 103 17l-6 -45q-40 -15 -103 -15q-36 0 -64.5 4t-57 14t-48.5 27t-36.5 45t-24 65t-7.5 89zM166 152q-3 -29 16 -29h8q43 0 54 57l151 867q8 55 -24 55h-11q-15 0 -22 -7.5t-10 -25.5z" />
<glyph unicode="A" horiz-adv-x="370" d="M-61 0l311 1434h100l-88 -1434h-74l15 229h-146l-49 -229h-69zM72 297h135l22 377q22 366 52 645q-21 -121 -129 -641z" />
<glyph unicode="B" horiz-adv-x="391" d="M-33 0l201 1434h174q70 0 90 -28q13 -18 13 -57q0 -21 -3 -49l-59 -417q-9 -63 -27 -92.5t-55 -38.5q35 -8 45 -36q5 -15 6 -40q0 -21 -4 -49l-69 -494q-11 -78 -39.5 -105.5t-98.5 -27.5h-174zM51 68h86q39 0 51.5 15.5t18.5 63.5l69 492q3 21 3 35q0 20 -5 29 q-8 16 -47 16h-86zM150 788h88q39 0 51 15.5t18 64.5l62 418q2 19 2 34q-1 20 -5 30q-8 16 -47 16h-86z" />
<glyph unicode="C" horiz-adv-x="382" d="M-20 123l167 1188q10 78 39.5 105.5t100.5 27.5h49q70 0 90 -28q13 -18 13 -57q0 -21 -3 -48l-61 -437h-70l60 422q2 19 2 34q-1 20 -5 30q-8 16 -47 16h-26q-39 0 -51.5 -16t-18.5 -64l-162 -1159q-8 -44 0 -62t47 -18h27q39 0 51.5 16t20.5 64l67 484h70l-70 -498 q-12 -78 -40.5 -105.5t-98.5 -27.5h-49q-70 0 -92 28q-14 18 -14 58q0 21 4 47z" />
<glyph unicode="D" horiz-adv-x="393" d="M-33 0l201 1434h174q70 0 90 -28q13 -18 14 -57q0 -21 -4 -49l-163 -1167q-11 -78 -39.5 -105.5t-98.5 -27.5h-174zM49 68h88q39 0 51.5 15.5t18.5 63.5l160 1139q3 22 3 38q0 18 -4 26q-8 16 -47 16h-88z" />
<glyph unicode="E" horiz-adv-x="301" d="M-33 0l201 1434h225l-10 -68h-150l-83 -580h129l-9 -69h-129l-90 -649h150l-8 -68h-226z" />
<glyph unicode="F" horiz-adv-x="284" d="M-33 0l201 1434h219l-8 -68h-146l-86 -600h125l-10 -70h-123l-98 -696h-74z" />
<glyph unicode="G" horiz-adv-x="382" d="M-20 123l167 1188q10 78 39.5 105.5t100.5 27.5h49q70 0 90 -28q14 -17 14 -57q0 -21 -4 -48l-61 -437h-70l60 422q2 19 2 34q0 20 -5 30q-8 16 -47 16h-26q-39 0 -51.5 -16t-18.5 -64l-162 -1159q-8 -44 0 -62t47 -18h27q39 0 51.5 16t20.5 64l76 541h-74l10 67h141 l-86 -622q-12 -78 -40.5 -105.5t-98.5 -27.5h-49q-70 0 -92 28q-14 18 -14 58q0 21 4 47z" />
<glyph unicode="H" horiz-adv-x="397" d="M-33 0l201 1434h74l-92 -648h147l90 648h76l-201 -1434h-76l101 717h-146l-100 -717h-74z" />
<glyph unicode="I" horiz-adv-x="176" d="M-33 0l201 1434h74l-201 -1434h-74z" />
<glyph unicode="J" horiz-adv-x="360" d="M-45 123l70 498h69l-67 -484q-8 -44 0 -62t47 -18h26q39 0 52.5 16.5t19.5 63.5l182 1297h74l-184 -1311q-10 -78 -39.5 -105.5t-100.5 -27.5h-49q-70 0 -91 28q-13 17 -13 57q0 21 4 48z" />
<glyph unicode="K" horiz-adv-x="382" d="M-33 0l201 1434h74l-92 -666q5 20 13 40.5t18 45t14 35.5l223 545h71l-284 -678l88 -756h-76l-67 610q-7 68 -7 115l-102 -725h-74z" />
<glyph unicode="L" horiz-adv-x="274" d="M-33 0l201 1434h74l-191 -1366h135l-8 -68h-211z" />
<glyph unicode="M" horiz-adv-x="516" d="M-33 0l201 1434h108l-47 -914q-5 -115 -22 -297q6 29 26.5 136t30.5 155l207 920h111l-201 -1434h-74l135 958q22 147 43 279q-6 -28 -28.5 -135.5t-30.5 -143.5l-217 -958h-74l49 958q2 25 9 128t10 157q-14 -127 -37 -285l-133 -958h-66z" />
<glyph unicode="N" horiz-adv-x="407" d="M-33 0l201 1434h98l-6 -889q0 -70 -8 -258q15 130 33 256l125 891h63l-201 -1434h-82l7 993q0 178 6 254q-26 -205 -33 -252l-139 -995h-64z" />
<glyph unicode="O" horiz-adv-x="389" d="M-20 123l167 1188q10 78 39.5 105.5t100.5 27.5h53q70 0 92 -28q14 -18 13 -58q0 -21 -3 -47l-168 -1188q-12 -78 -40.5 -105.5t-98.5 -27.5h-53q-70 0 -92 28q-14 18 -14 58q0 21 4 47zM56 75q9 -18 48 -18h27q39 0 51.5 16t20.5 64l162 1159q2 19 2 34q-1 20 -5 30 q-8 16 -47 16h-26q-39 0 -51.5 -16t-18.5 -64l-162 -1159q-5 -23 -6 -39q1 -14 5 -23z" />
<glyph unicode="P" d="M-33 0l201 1434h166q70 0 92 -28q14 -19 14 -59q0 -21 -4 -47l-82 -577q-10 -76 -39 -103.5t-100 -27.5h-92l-82 -592h-74zM133 657h78q39 0 52.5 16.5t19.5 63.5l75 549q4 22 4 37.5t-4 24.5q-8 18 -47 18h-80z" />
<glyph unicode="Q" horiz-adv-x="389" d="M-20 123l167 1188q10 78 39.5 105.5t100.5 27.5h53q70 0 92 -28q14 -18 14 -58q0 -21 -4 -47l-168 -1188q-11 -74 -35.5 -102t-84.5 -31l-9 -58q-6 -44 4.5 -60.5t43.5 -16.5h18l-8 -45h-33q-56 0 -77 24q-15 17 -15 62q0 17 2 38l6 56h-4q-70 0 -92 28q-14 18 -14 58 q0 21 4 47zM57 75q8 -18 47 -18h27q39 0 52.5 16.5t19.5 63.5l162 1159q2 19 2 34q0 20 -5 30q-8 16 -47 16h-26q-39 0 -51.5 -16t-18.5 -64l-162 -1159q-4 -22 -4 -37.5t4 -24.5z" />
<glyph unicode="R" horiz-adv-x="393" d="M-33 0l201 1434h174q70 0 90 -28q13 -18 14 -57q0 -21 -4 -49l-61 -442q-9 -61 -26.5 -89.5t-53.5 -37.5q33 -9 42 -39q5 -16 4 -40q0 -21 -3 -50l-63 -465q-9 -55 -8 -94q0 -25 3 -43h-77q-3 10 -3 32q0 32 7 89l69 491q2 19 2 34q0 22 -5 32q-9 18 -48 18h-84l-96 -696 h-74zM147 766h86q40 0 53 15.5t19 62.5l62 442q3 22 3 38q0 18 -4 26q-8 16 -47 16h-88z" />
<glyph unicode="S" horiz-adv-x="374" d="M-23 123l64 455h70l-62 -441q-3 -21 -2 -35q0 -20 4 -29q8 -16 47 -16h21q39 0 51 16t20 64l43 305q9 48 9 87q0 25 -4 46q-9 54 -56 138q-64 113 -76 173q-5 26 -5 61q0 48 10 114l34 250q10 78 39.5 105.5t100.5 27.5h43q70 0 90 -28q13 -18 14 -57q0 -21 -4 -48 l-57 -404h-70l55 389q3 21 3 35q0 20 -5 29q-8 16 -47 16h-20q-39 0 -51.5 -16t-18.5 -64l-35 -252q-9 -51 -10 -91q0 -25 4 -45q9 -54 57 -136q63 -112 75 -172q5 -25 5 -59q0 -48 -10 -115l-41 -303q-11 -78 -39 -105.5t-100 -27.5h-43q-71 0 -92 28q-14 19 -14 60 q0 20 3 45z" />
<glyph unicode="T" horiz-adv-x="266" d="M12 0l191 1366h-86l8 68h248l-8 -68h-89l-190 -1366h-74z" />
<glyph unicode="U" horiz-adv-x="387" d="M-18 123l184 1311h74l-183 -1297q-3 -21 -2 -35q0 -20 4 -29q8 -16 47 -16h27q39 0 51.5 16t20.5 64l180 1297h70l-183 -1311q-12 -78 -40.5 -105.5t-98.5 -27.5h-49q-72 0 -93 28q-13 18 -13 55q0 22 4 50z" />
<glyph unicode="V" horiz-adv-x="368" d="M53 0l88 1434h74l-43 -703q-20 -335 -47 -590q35 193 119 590l149 703h70l-311 -1434h-99z" />
<glyph unicode="W" horiz-adv-x="557" d="M37 0l104 1434h74l-51 -707q-7 -104 -16 -203t-18.5 -190.5t-12.5 -120.5q10 78 98 514l143 707h78l-51 -707q-6 -93 -45 -514q14 109 96 512l148 709h67l-297 -1434h-86l49 694q20 294 48 529q-74 -431 -95 -529l-141 -694h-92z" />
<glyph unicode="X" horiz-adv-x="370" d="M-59 0l215 752l-9 682h74l2 -271q0 -23 1 -101q1 -52 1 -97q-1 -23 -1 -43q0 -62 -3 -113q38 163 92 354l76 271h68l-199 -682l4 -752h-74v328q0 256 7 362q-45 -188 -93 -362l-92 -328h-69z" />
<glyph unicode="Y" horiz-adv-x="342" d="M51 0l72 522l6 912h74l-4 -383q-4 -210 -15 -385q36 169 95 385l102 383h68l-250 -912l-74 -522h-74z" />
<glyph unicode="Z" horiz-adv-x="299" d="M-61 0l8 61l360 1305h-166l9 68h239l-8 -62l-358 -1304h176l-11 -68h-249z" />
<glyph unicode="[" horiz-adv-x="231" d="M-53 -143l223 1597h156l-9 -57h-88l-206 -1483h88l-9 -57h-155z" />
<glyph unicode="\" d="M145 1475h66l37 -1516h-66z" />
<glyph unicode="]" horiz-adv-x="231" d="M-78 -143l6 57h88l207 1483h-88l8 57h156l-223 -1597h-154z" />
<glyph unicode="^" d="M121 1153l151 281h52l71 -281h-61l-45 201l-105 -201h-63z" />
<glyph unicode="_" horiz-adv-x="1024" d="M-94 -78l8 55h1022l-8 -55h-1022z" />
<glyph unicode="`" horiz-adv-x="180" d="M129 1399h70l43 -148h-43z" />
<glyph unicode="a" horiz-adv-x="346" d="M-33 94l51 369q11 78 35 119t88 86q75 53 94.5 80.5t28.5 91.5l35 241q8 40 0.5 56t-41.5 16h-22q-33 0 -44.5 -14.5t-17.5 -57.5l-43 -295h-63l45 310q9 68 34.5 93t88.5 25h43q63 0 81 -24q12 -16 12 -53q0 -18 -3 -41l-140 -992q-7 -46 -7 -79q0 -13 1 -25h-63 q-6 15 0 59q-26 -69 -101 -69h-20q-50 0 -65 22q-10 14 -10 45q0 16 3 37zM37 119q-2 -17 -2 -30q-1 -16 3 -24q6 -14 38 -14h18q59 0 72 88l76 537q-18 -21 -62 -51q-52 -37 -69 -66t-25 -90z" />
<glyph unicode="b" horiz-adv-x="356" d="M-37 0l201 1434h67l-38 -275q30 55 96 55h22q49 0 65 -22q10 -15 10 -46q0 -16 -3 -36l-141 -1016q-7 -58 -30 -81t-73 -23h-22q-74 0 -84 67l-15 -57h-55zM49 139q-2 -15 -2 -28q0 -60 51 -60h21q32 0 42 14t15 54l135 966q4 19 4 32q1 13 -3 21q-8 16 -40 15h-18 q-63 0 -76 -88z" />
<glyph unicode="c" horiz-adv-x="346" d="M-27 109l140 987q9 68 35 93t90 25h45q63 0 81 -24q12 -16 12 -53q0 -18 -3 -41l-51 -371h-64l49 356q8 40 0.5 56t-41.5 16h-26q-33 0 -44.5 -14.5t-17.5 -57.5l-135 -958q-6 -42 1.5 -57t41.5 -15h27q33 0 43.5 14.5t17.5 57.5l51 377h64l-53 -391q-11 -69 -36.5 -94 t-88.5 -25h-45q-64 0 -83 26q-13 17 -13 54q0 17 3 39z" />
<glyph unicode="d" horiz-adv-x="356" d="M-27 94l142 1016q8 59 29.5 81.5t72.5 22.5h23q37 0 55 -15t24 -44l39 279h68l-186 -1330q-9 -58 -9 -92v-12h-61q-6 15 0 61q-25 -71 -102 -71h-23q-50 0 -65 22q-10 14 -10 45q0 16 3 37zM43 119q-2 -17 -2 -30q-1 -16 3 -24q6 -14 38 -14h20q59 0 72 88l131 926 q2 16 2 29q0 59 -49 59h-20q-32 0 -43.5 -14.5t-16.5 -53.5z" />
<glyph unicode="e" horiz-adv-x="346" d="M-27 109l140 987q9 68 35 93t90 25h45q63 0 81 -24q12 -16 12 -53q0 -18 -3 -41l-70 -510h-194l-66 -463q-6 -42 1.5 -57t41.5 -15h27q33 0 43.5 14.5t17.5 57.5l43 301h64l-45 -315q-11 -69 -36.5 -94t-88.5 -25h-45q-64 0 -83 26q-13 17 -13 54q0 17 3 39zM117 643h131 l59 438q4 21 4 35q1 13 -3 21q-8 16 -42 16h-26q-33 0 -44.5 -14.5t-17.5 -57.5z" />
<glyph unicode="f" horiz-adv-x="200" d="M-27 0l158 1143h-47l10 61h47l15 111q9 68 35 93.5t88 25.5h30l-8 -58h-16q-32 0 -44 -11.5t-18 -53.5l-16 -107h69l-10 -61h-67l-158 -1143h-68z" />
<glyph unicode="g" horiz-adv-x="342" d="M-61 -104l2 16q8 62 55 80q-24 15 -24 56q0 8 1 18l2 14q6 45 41 63q-21 11 -26 39q-2 11 -2 25q0 21 4 47l119 842q9 69 34 93.5t88 24.5h41q40 0 60.5 -8.5t27.5 -31.5q12 40 46 40h12l-8 -59h-13q-21 0 -24 -33l-123 -868q-9 -70 -34.5 -95.5t-88.5 -25.5h-53 q-25 0 -36.5 -10t-14.5 -37q-4 -26 7 -35.5t38 -9.5h63q60 0 87 -20q22 -15 22 -56q0 -12 -2 -26l-4 -33q-7 -60 -39.5 -83.5t-94.5 -23.5h-79q-85 0 -85 78q0 9 1 19zM-8 -94q-1 -7 -1 -13q0 -18 9 -27q11 -11 41 -11h68q35 0 49 9.5t18 41.5l4 26q4 25 -9 34t-46 9h-74 q-29 0 -40.5 -11t-16.5 -40zM58 210q8 -15 42 -15h27q33 0 44 14t17 57l115 815q4 21 4 36q0 14 -3 21q-8 17 -42 17h-26q-33 0 -44.5 -15t-17.5 -59l-115 -815q-4 -21 -4 -35q0 -13 3 -21z" />
<glyph unicode="h" horiz-adv-x="358" d="M-37 0l201 1434h67l-38 -275q30 55 96 55h22q49 0 65 -22q10 -15 10 -46q0 -16 -3 -36l-156 -1110h-67l151 1085q5 40 -1 54t-38 14h-18q-63 0 -76 -88l-147 -1065h-68z" />
<glyph unicode="i" horiz-adv-x="161" d="M-37 0l168 1204h68l-168 -1204h-68zM150 1331l14 103h67l-14 -103h-67z" />
<glyph unicode="j" horiz-adv-x="161" d="M-123 -190l8 57h9q31 0 42 11t17 54l178 1272h68l-181 -1276q-9 -68 -33 -93t-85 -25h-23zM150 1331l14 103h67l-14 -103h-67z" />
<glyph unicode="k" horiz-adv-x="346" d="M-37 0l201 1434h67l-108 -770q10 31 29 76.5t24 58.5l168 405h66l-236 -559l78 -645h-68l-57 489q-10 78 -10 140l-86 -629h-68z" />
<glyph unicode="l" horiz-adv-x="161" d="M-37 0l201 1434h67l-200 -1434h-68z" />
<glyph unicode="m" horiz-adv-x="536" d="M-37 0l168 1204h64l-9 -57q26 67 103 67h12q39 0 57 -13t19 -44q29 57 96 57h16q50 0 65 -22q10 -14 10 -45q0 -16 -3 -37l-153 -1110h-68l149 1085q7 37 0.5 52.5t-36.5 15.5h-13q-60 0 -73 -88l-148 -1065h-67l151 1085q5 40 -1 54t-38 14h-10q-61 0 -74 -86 l-149 -1067h-68z" />
<glyph unicode="n" horiz-adv-x="358" d="M-37 0l168 1204h64l-9 -57q26 67 103 67h22q49 0 65 -22q10 -15 10 -46q0 -16 -3 -36l-156 -1110h-67l151 1085q5 40 -1 54t-38 14h-18q-63 0 -76 -88l-147 -1065h-68z" />
<glyph unicode="o" horiz-adv-x="352" d="M-27 109l140 987q9 68 35 93t90 25h49q63 0 81 -24q12 -16 12 -53q0 -18 -3 -41l-137 -987q-11 -69 -36.5 -94t-88.5 -25h-49q-64 0 -83 26q-13 17 -13 54q0 17 3 39zM43 123q-3 -19 -3 -32q0 -17 4 -25q8 -15 42 -15h27q33 0 43.5 14.5t17.5 57.5l133 958q4 21 4 35 q1 13 -3 21q-8 16 -42 16h-26q-33 0 -44.5 -14.5t-17.5 -57.5z" />
<glyph unicode="p" horiz-adv-x="356" d="M-66 -190l197 1394h64l-9 -57q26 67 103 67h22q49 0 65 -22q10 -15 10 -46q0 -16 -3 -36l-141 -1016q-7 -58 -30 -81t-73 -23h-22q-69 0 -82 55l-33 -235h-68zM49 139q-2 -15 -2 -28q0 -60 51 -60h21q32 0 42 14t15 54l135 966q4 19 4 32t-3 21q-8 15 -40 15h-18 q-63 0 -76 -88z" />
<glyph unicode="q" horiz-adv-x="356" d="M-27 94l142 1016q8 59 29.5 81.5t72.5 22.5h23q75 0 82 -71l16 61h55l-196 -1394h-68l33 235q-25 -55 -94 -55h-23q-50 0 -65 22q-10 14 -10 45q0 16 3 37zM43 119q-2 -17 -2 -30q0 -16 3 -24q7 -14 38 -14h20q59 0 72 88l131 926q2 16 2 29q0 59 -49 59h-20 q-32 0 -43.5 -14.5t-16.5 -53.5z" />
<glyph unicode="r" horiz-adv-x="212" d="M-37 0l168 1204h64l-13 -78q32 88 97 88h10l-10 -71h-13q-40 0 -62.5 -28t-31.5 -93l-141 -1022h-68z" />
<glyph unicode="s" horiz-adv-x="337" d="M-31 109l45 335h64l-43 -321q-6 -43 1 -57.5t42 -14.5h22q35 0 46.5 14.5t17.5 57.5l35 248q4 33 4 60q0 29 -5 51q-10 40 -55 106q-57 86 -69 142q-6 25 -6 57q0 39 8 90l30 219q9 68 35 93t90 25h45q64 0 83 -25q13 -17 13 -54q0 -17 -3 -39l-45 -316h-64l43 301 q5 44 -1.5 58t-39.5 14h-26q-35 0 -46.5 -14.5t-17.5 -57.5l-31 -227q-7 -37 -6 -66q0 -24 4 -44q10 -42 56 -109q57 -85 69 -139q6 -25 6 -57q0 -39 -8 -91l-33 -239q-11 -69 -36.5 -94t-88.5 -25h-45q-65 0 -83 26q-12 16 -11 48q0 20 4 45z" />
<glyph unicode="t" horiz-adv-x="196" d="M-14 0q-3 10 -3 32q0 33 7 93l143 1018h-49l10 61h47l25 174h67l-24 -174h61l-8 -61h-61l-142 -1002q-8 -50 -7 -87q0 -32 5 -54h-71z" />
<glyph unicode="u" horiz-adv-x="358" d="M-25 94l154 1110h68l-152 -1085q-5 -40 1.5 -54t37.5 -14h20q59 0 72 88l152 1065h67l-153 -1100q-9 -58 -9 -92v-12h-61q-6 15 0 61q-25 -71 -102 -71h-23q-50 0 -65 22q-10 14 -10 45q0 16 3 37z" />
<glyph unicode="v" horiz-adv-x="319" d="M33 0l61 1204h68l-27 -540q-13 -263 -41 -543q42 245 111 543l125 540h61l-274 -1204h-84z" />
<glyph unicode="w" horiz-adv-x="509" d="M14 0l82 1204h68l-39 -557q-12 -195 -47 -520q17 109 104 520l121 557h72l-31 -557q-10 -211 -43 -520q27 176 100 520l119 557h62l-254 -1204h-88l39 596q18 282 34 436q-38 -223 -84 -436l-129 -596h-86z" />
<glyph unicode="x" horiz-adv-x="329" d="M-70 0l187 633l-13 571h68l2 -121q6 -291 6 -378v-31q11 50 35 136t53.5 183.5t36.5 124.5l25 86h63l-174 -569l14 -635h-69l-2 150q-3 141 -3 253t3 195q-16 -69 -129 -469l-37 -129h-66z" />
<glyph unicode="y" horiz-adv-x="319" d="M-80 -178l8 57h45q41 0 50 49l6 35l65 1241h68l-27 -540q-13 -263 -41 -543q42 245 111 543l125 540h61l-293 -1284q-12 -53 -39.5 -75.5t-72.5 -22.5h-66z" />
<glyph unicode="z" horiz-adv-x="282" d="M-59 0l6 55l317 1088h-151l8 61h223l-8 -55l-320 -1088h166l-6 -61h-235z" />
<glyph unicode="{" horiz-adv-x="253" d="M-14 -25l82 584q6 42 -2 55t-39 13h-11l9 57h10q31 0 42 12.5t17 55.5l82 583q9 68 35 93.5t90 25.5h47l-8 -57h-35q-34 0 -45.5 -15t-17.5 -59l-78 -555q-8 -52 -23 -78t-45 -35q27 -9 35 -34.5t2 -77.5l-78 -555q-6 -43 1.5 -58.5t41.5 -15.5h35l-8 -57h-47 q-64 0 -82.5 25t-9.5 93z" />
<glyph unicode="|" d="M35 -190l229 1624h66l-230 -1624h-65z" />
<glyph unicode="}" horiz-adv-x="253" d="M-78 -143l6 57h37q33 0 44.5 15t17.5 59l77 555q6 52 21 77.5t47 34.5q-29 9 -37 35t0 78l78 555q6 44 -1 59t-42 15h-35l8 57h50q62 0 80.5 -25.5t9.5 -93.5l-82 -583q-6 -43 1.5 -55.5t39.5 -12.5h10l-8 -57h-11q-31 0 -42 -12.5t-17 -55.5l-82 -584q-9 -68 -34.5 -93 t-88.5 -25h-47z" />
<glyph unicode="~" d="M51 657l10 72q40 45 76 45q25 0 67.5 -24.5t63.5 -24.5q37 0 74 51l-10 -71q-40 -48 -78 -48q-24 0 -66.5 25t-64.5 25q-36 0 -72 -50z" />
<glyph unicode="&#xa1;" horiz-adv-x="172" d="M-63 -190l65 456l127 803h45l-98 -803l-66 -456h-73zM123 1139l14 104h78l-14 -104h-78z" />
<glyph unicode="&#xa2;" d="M-2 223l137 987q9 67 33.5 92.5t85.5 26.5l16 105h56l-17 -105q61 -1 79 -26.5t9 -92.5l-53 -370h-63l51 356q8 40 0.5 56t-41.5 16h-27q-35 0 -45.5 -14.5t-17.5 -57.5l-133 -958q-8 -40 -0.5 -56t41.5 -16h26q33 0 44.5 14.5t17.5 57.5l53 376h63l-55 -391 q-9 -66 -35 -92.5t-84 -26.5l-14 -104h-55l14 104q-61 0 -78 25t-8 94z" />
<glyph unicode="&#xa3;" d="M-45 0l8 59q108 163 133 359h-63l8 55h61q7 90 0 154.5t-6.5 192t19.5 259.5l32 240q11 72 38.5 98.5t93.5 26.5h47q65 0 84 -26t8 -99l-68 -483h-65l65 469q6 44 -1.5 58.5t-43.5 14.5h-24q-36 0 -48 -14.5t-18 -58.5l-31 -228q-18 -129 -19 -254t5 -190t-2 -160h102 l-6 -55h-102q-28 -195 -127 -352h201l-9 -66h-272z" />
<glyph unicode="&#xa4;" d="M37 604l61 49q-17 26 -10 64q2 26 27 63l-45 49l32 29l43 -53q28 22 68 22q36 0 61 -22l56 53l26 -29l-63 -49q18 -27 12 -63q-7 -39 -29 -64l50 -49l-35 -29l-41 54q-33 -23 -70 -23q-36 0 -59 23l-58 -54zM123 717q-5 -31 13.5 -52.5t49.5 -21.5t55 21.5t29 52.5 q3 31 -15 52.5t-48 21.5q-31 0 -55 -21.5t-29 -52.5z" />
<glyph unicode="&#xa5;" d="M0 352l4 33h109l14 104h-109l5 31h108l2 6l14 908h70l-8 -383q-4 -189 -19 -385q31 136 95 387l96 381h68l-246 -914h112l-6 -31h-112l-15 -104h113l-4 -33h-113l-47 -352h-70l48 352h-109z" />
<glyph unicode="&#xa6;" d="M35 -190l108 763h66l-109 -763h-65zM158 670l106 764h66l-107 -764h-65z" />
<glyph unicode="&#xa7;" horiz-adv-x="342" d="M-51 -35l35 254h65l-33 -237q-8 -41 -0.5 -57.5t41.5 -16.5h27q33 0 44 14.5t17 59.5l17 122q12 65 3 111t-52 111q-58 88 -72 138t-2 136l31 221q9 67 29.5 97.5t62.5 37.5q-37 63 -45 110.5t4 123.5l18 133q9 69 36 95t91 26h47q64 0 83 -25.5t10 -95.5l-37 -254h-66 l35 238q8 41 0.5 57t-41.5 16h-29q-33 0 -44 -14.5t-17 -58.5l-17 -121q-10 -67 -0.5 -110.5t52.5 -110.5q58 -88 71.5 -138.5t1.5 -138.5l-30 -221q-9 -67 -30.5 -98t-64.5 -39q37 -61 45 -109t-4 -123l-18 -133q-9 -70 -35 -95.5t-90 -25.5h-47q-64 0 -82.5 25.5 t-9.5 95.5zM106 493.5q9 -41.5 48 -106.5h2q33 0 44 18t19 74l29 207q9 67 -0.5 108t-48.5 107q-33 0 -44.5 -18.5t-19.5 -73.5l-29 -207q-9 -67 0 -108.5z" />
<glyph unicode="&#xa8;" horiz-adv-x="180" d="M94 1288l8 72h64l-8 -72h-64zM217 1288l10 72h62l-8 -72h-64z" />
<glyph unicode="&#xa9;" horiz-adv-x="583" d="M-6 221l139 991q18 123 71.5 177.5t174.5 54.5h63q123 0 161 -54.5t20 -177.5l-142 -991q-16 -123 -68 -177t-175 -54h-64q-122 0 -160 54.5t-20 176.5zM43 221q-15 -105 14.5 -145.5t124.5 -40.5h62q96 0 136 40.5t54 145.5l139 991q15 105 -14 146t-123 41h-61 q-95 0 -135.5 -40.5t-55.5 -146.5zM143 229l138 975q6 50 25.5 68t66.5 18h28q46 0 61 -18t9 -68l-51 -364h-47l49 354q3 29 -3.5 39t-31.5 10h-10q-25 0 -34.5 -10t-14.5 -39l-133 -956q-5 -28 2 -39t32 -11h9q25 0 35.5 11.5t13.5 38.5l57 401h47l-57 -410 q-7 -50 -27.5 -68t-66.5 -18h-29q-46 0 -60.5 18t-7.5 68z" />
<glyph unicode="&#xaa;" horiz-adv-x="272" d="M25 526l8 52h198l-6 -52h-200zM53 725l33 225q8 53 25.5 81.5t64.5 60.5q53 34 68.5 54.5t21.5 65.5l19 134q5 31 -0.5 41t-30.5 10h-12q-24 0 -32 -10t-13 -41l-25 -172h-49l24 180q8 53 28 71.5t69 18.5h28q47 0 60.5 -18.5t5.5 -71.5l-86 -623q-8 -49 -4 -74h-47 q-6 8 -2 41q-20 -51 -76 -51h-17q-36 0 -47.5 17.5t-5.5 60.5zM109.5 705.5q4.5 -11.5 27.5 -11.5h13q41 0 51 62l49 336q-15 -15 -45 -35q-38 -28 -49.5 -48t-16.5 -59l-28 -207q-6 -26 -1.5 -37.5z" />
<glyph unicode="&#xab;" horiz-adv-x="333" d="M12 602l174 436h64l-172 -438l49 -434h-64zM147 600l175 438h63l-172 -438l49 -434h-63z" />
<glyph unicode="&#xac;" d="M55 686l8 62h275l-27 -179h-57l18 117h-217z" />
<glyph unicode="&#xad;" horiz-adv-x="235" d="M20 551l11 65h178l-10 -65h-179z" />
<glyph unicode="&#xae;" horiz-adv-x="583" d="M-6 221l139 991q18 123 71.5 177.5t174.5 54.5h63q123 0 161 -54.5t20 -177.5l-142 -991q-18 -124 -69.5 -177.5t-173.5 -53.5h-64q-122 0 -160 54.5t-20 176.5zM43 221q-15 -105 14.5 -145.5t124.5 -40.5h62q96 0 136 40.5t54 145.5l139 991q15 105 -14 146t-123 41h-61 q-95 0 -135.5 -40.5t-55.5 -146.5zM133 154l158 1124h110q48 0 62.5 -17.5t7.5 -68.5l-55 -401q-9 -67 -54 -82q38 -10 29 -80l-51 -367q-10 -65 -4 -108h-53q-6 30 4 96l55 385q5 28 -3.5 39.5t-33.5 11.5h-47l-74 -532h-51zM264 733h49q26 0 36 10.5t13 38.5l58 404 q5 28 -3 38.5t-34 10.5h-49z" />
<glyph unicode="&#xaf;" horiz-adv-x="180" d="M88 1286l6 49h199l-6 -49h-199z" />
<glyph unicode="&#xb0;" horiz-adv-x="264" d="M125 1292q0 54 34.5 90.5t88.5 36.5q41 0 65.5 -25t24.5 -65q0 -52 -35 -87.5t-86 -35.5q-42 0 -67 23.5t-25 62.5zM174 1303q0 -23 12.5 -36.5t36.5 -13.5q27 0 46.5 19.5t19.5 48.5q0 23 -13 37t-36 14q-29 0 -47.5 -19t-18.5 -50z" />
<glyph unicode="&#xb1;" d="M33 528l8 62h274l-8 -62h-274zM61 733l9 60h108l17 112h59l-16 -112h106l-8 -60h-107l-16 -112h-59l16 112h-109z" />
<glyph unicode="&#xb2;" horiz-adv-x="276" d="M25 551l16 117q13 93 37 150t92 159q53 79 73.5 128.5t32.5 131.5l17 102q7 26 0.5 40t-33.5 14h-16q-27 0 -35.5 -11t-13.5 -43l-33 -225h-51l34 238q8 53 29 72.5t70 19.5h35q47 0 62 -19.5t7 -72.5l-16 -115q-9 -65 -27 -115.5t-37 -83.5t-71 -114q-50 -76 -69.5 -127 t-31.5 -131l-8 -64h150l-7 -51h-206z" />
<glyph unicode="&#xb3;" horiz-adv-x="276" d="M41 633l33 239h51l-31 -225q-6 -31 -0.5 -43t31.5 -12h18q25 0 33.5 11t13.5 44l39 279q6 31 0.5 43t-30.5 12h-68l6 49h68q26 0 34 10.5t13 44.5l35 254q6 31 0.5 42.5t-31.5 11.5h-18q-26 0 -34.5 -10.5t-13.5 -43.5l-30 -223h-49l32 236q6 52 27.5 72t69.5 20h34 q47 0 61.5 -19.5t6.5 -72.5l-35 -258q-6 -44 -19 -64t-40 -26q25 -6 33 -26t2 -60l-41 -285q-8 -53 -28 -72.5t-67 -19.5h-34q-47 0 -62.5 19.5t-9.5 72.5z" />
<glyph unicode="&#xb4;" horiz-adv-x="180" d="M123 1251l82 148h71l-108 -148h-45z" />
<glyph unicode="&#xb5;" horiz-adv-x="358" d="M-66 -190l195 1394h68l-152 -1085q-5 -40 1.5 -54t37.5 -14h20q59 0 72 88l152 1065h67l-153 -1100q-11 -68 -9 -104h-61q-6 15 0 61q-25 -71 -102 -71h-23q-14 0 -20 2l-27 -182h-66z" />
<glyph unicode="&#xb6;" horiz-adv-x="440" d="M35 688l86 612q11 78 40 106t101 28h244l-221 -1579h-58l213 1523h-88l-213 -1523h-59l98 700h-39q-72 0 -93.5 28t-10.5 105z" />
<glyph unicode="&#xb7;" horiz-adv-x="180" d="M59 662l15 110h78l-15 -110h-78z" />
<glyph unicode="&#xb8;" horiz-adv-x="180" d="M-92 -145q0 14 2 22h47q-4 -14 -4 -31q0 -10 6 -14t21 -4q38 0 38 57q0 31 -30 31h-15l15 98h26l-10 -69q35 0 50.5 -12t15.5 -39q0 -95 -93 -95q-41 0 -55 13t-14 43z" />
<glyph unicode="&#xb9;" horiz-adv-x="161" d="M45 551l121 856q10 0 20.5 9t12.5 18h24l-125 -883h-53z" />
<glyph unicode="&#xba;" horiz-adv-x="272" d="M25 526l8 52h196l-6 -52h-198zM57 737l86 617q7 52 27 71t66 19h36q49 0 62.5 -18.5t5.5 -71.5l-86 -617q-8 -53 -26.5 -71.5t-67.5 -18.5h-37q-46 0 -59.5 19t-6.5 71zM111 745q-3 -31 1.5 -41t28.5 -10h17q25 0 32.5 10t12.5 41l84 601q3 31 -2 41t-29 10h-16 q-24 0 -32 -10t-13 -41z" />
<glyph unicode="&#xbb;" horiz-adv-x="333" d="M-51 166l172 438l-49 434h63l51 -434l-174 -438h-63zM84 166l172 438l-49 434h63l52 -436l-175 -436h-63z" />
<glyph unicode="&#xbc;" horiz-adv-x="497" d="M8 0l418 1434h29l-420 -1434h-27zM45 551l121 856q10 0 20.5 9t12.5 18h24l-125 -883h-53zM193 213l4 45l223 625h57l-88 -623h33l-6 -47h-33l-31 -213h-53l31 213h-137zM246 260h90l18 129q22 174 52 342q-22 -69 -115 -342z" />
<glyph unicode="&#xbd;" horiz-adv-x="528" d="M8 0l418 1434h29l-420 -1434h-27zM45 551l121 856q10 0 20.5 9t12.5 18h24l-125 -883h-53zM199 0l16 117q13 93 37 150t92 159q54 80 74.5 129.5t32.5 130.5l16 102q7 26 0.5 40t-33.5 14h-16q-27 0 -35.5 -11t-13.5 -43l-33 -225h-51l34 238q8 53 29 72.5t70 19.5h35 q47 0 62 -19.5t7 -72.5l-16 -115q-9 -65 -27 -115.5t-37 -83.5t-71 -114q-50 -76 -69.5 -127t-31.5 -131l-8 -64h150l-6 -51h-207z" />
<glyph unicode="&#xbe;" horiz-adv-x="598" d="M41 633l33 239h51l-31 -225q-6 -31 -0.5 -43t31.5 -12h18q25 0 33.5 11t13.5 44l39 279q6 31 0.5 43t-30.5 12h-68l6 49h68q26 0 34 10.5t13 44.5l35 254q6 31 0.5 42.5t-31.5 11.5h-18q-26 0 -34.5 -10.5t-13.5 -43.5l-30 -223h-49l32 236q6 52 27.5 72t69.5 20h34 q47 0 61.5 -19.5t6.5 -72.5l-35 -258q-6 -44 -19 -64t-40 -26q25 -6 33 -26t2 -60l-41 -285q-8 -53 -28 -72.5t-67 -19.5h-34q-47 0 -62.5 19.5t-9.5 72.5zM109 0l417 1434h29l-420 -1434h-26zM293 213l4 45l223 625h58l-89 -623h33l-6 -47h-33l-30 -213h-54l31 213h-137z M346 260h90l19 129q25 195 51 342q-22 -69 -115 -342z" />
<glyph unicode="&#xbf;" horiz-adv-x="323" d="M-70 -76l39 277q12 87 35 157.5t49.5 121.5t53.5 103.5t51 130t37 173.5l20 151h59l-22 -151q-14 -102 -37 -183.5t-47.5 -134.5t-49 -102t-45.5 -114.5t-32 -145.5l-39 -268q-6 -44 1.5 -59t43.5 -15h27q35 0 46 14.5t17 59.5l62 438h65l-63 -453q-11 -73 -37.5 -99 t-91.5 -26h-47q-66 0 -86 26.5t-9 98.5zM215 1104l18 139h80l-18 -139h-80z" />
<glyph unicode="&#xc0;" horiz-adv-x="370" d="M-61 0l311 1434h100l-88 -1434h-74l15 229h-146l-49 -229h-69zM72 297h135l22 377q22 366 52 645q-21 -121 -129 -641zM233 1614h70l43 -148h-43z" />
<glyph unicode="&#xc1;" horiz-adv-x="370" d="M-61 0l311 1434h100l-88 -1434h-74l15 229h-146l-49 -229h-69zM72 297h135l22 377q22 366 52 645q-21 -121 -129 -641zM264 1466l82 148h72l-109 -148h-45z" />
<glyph unicode="&#xc2;" horiz-adv-x="370" d="M-61 0l311 1434h100l-88 -1434h-74l15 229h-146l-49 -229h-69zM72 297h135l22 377q22 366 52 645q-21 -121 -129 -641zM207 1466l92 148h51l56 -148h-44l-45 90l-65 -90h-45z" />
<glyph unicode="&#xc3;" horiz-adv-x="370" d="M-61 0l311 1434h100l-88 -1434h-74l15 229h-146l-49 -229h-69zM72 297h135l22 377q22 366 52 645q-21 -121 -129 -641zM197 1489q7 48 24.5 67t52.5 19q25 0 53 -18.5t38 -18.5q26 0 32 37h35q-7 -50 -24 -68t-52 -18q-26 0 -53.5 18.5t-38.5 18.5q-26 0 -31 -37h-36z " />
<glyph unicode="&#xc4;" horiz-adv-x="370" d="M-61 0l311 1434h100l-88 -1434h-74l15 229h-146l-49 -229h-69zM72 297h135l22 377q22 366 52 645q-21 -121 -129 -641zM217 1503l8 72h64l-8 -72h-64zM340 1503l10 72h62l-9 -72h-63z" />
<glyph unicode="&#xc5;" horiz-adv-x="370" d="M-61 0l311 1434h100l-88 -1434h-74l15 229h-146l-49 -229h-69zM72 297h135l22 377q22 366 52 645q-21 -121 -129 -641zM248 1532q0 38 23 60t55 22q26 0 41.5 -17.5t15.5 -42.5q0 -38 -22.5 -59.5t-55.5 -21.5q-26 0 -41.5 17t-15.5 42zM283 1536q0 -12 6.5 -20.5 t19.5 -8.5q16 0 27.5 12t11.5 31q0 12 -6.5 20.5t-19.5 8.5q-16 0 -27.5 -12t-11.5 -31z" />
<glyph unicode="&#xc6;" horiz-adv-x="471" d="M-70 0l377 1434h256l-10 -68h-152l-82 -580h130l-11 -69h-129l-90 -649h152l-9 -68h-225l31 229h-109l-59 -229h-70zM76 297h100l137 960q-64 -284 -135 -559z" />
<glyph unicode="&#xc7;" horiz-adv-x="382" d="M-20 123l167 1188q10 78 39.5 105.5t100.5 27.5h49q70 0 90.5 -27.5t9.5 -105.5l-61 -437h-70l60 422q6 47 -2.5 63.5t-47.5 16.5h-26q-39 0 -51.5 -16t-18.5 -64l-162 -1159q-8 -44 0 -62t47 -18h27q39 0 52.5 16.5t19.5 63.5l67 484h70l-70 -498q-10 -78 -39 -105.5 t-100 -27.5h-25l-6 -45q35 0 50.5 -12t15.5 -39q0 -95 -92 -95q-41 0 -55.5 13t-14.5 43q0 14 2 22h47q-4 -14 -4 -31q0 -10 6 -14t21 -4q39 0 39 57q0 31 -31 31h-14l10 74q-69 0 -89.5 27.5t-10.5 105.5z" />
<glyph unicode="&#xc8;" horiz-adv-x="301" d="M-33 0l201 1434h225l-10 -68h-150l-83 -580h129l-9 -69h-129l-90 -649h150l-8 -68h-226zM211 1614h70l43 -148h-43z" />
<glyph unicode="&#xc9;" horiz-adv-x="301" d="M-33 0l201 1434h225l-10 -68h-150l-83 -580h129l-9 -69h-129l-90 -649h150l-8 -68h-226zM244 1466l82 148h71l-108 -148h-45z" />
<glyph unicode="&#xca;" horiz-adv-x="301" d="M-33 0l201 1434h225l-10 -68h-150l-83 -580h129l-9 -69h-129l-90 -649h150l-8 -68h-226zM182 1466l92 148h52l55 -148h-43l-45 90l-66 -90h-45z" />
<glyph unicode="&#xcb;" horiz-adv-x="301" d="M-33 0l201 1434h225l-10 -68h-150l-83 -580h129l-9 -69h-129l-90 -649h150l-8 -68h-226zM195 1503l8 72h63l-8 -72h-63zM317 1503l11 72h61l-8 -72h-64z" />
<glyph unicode="&#xcc;" horiz-adv-x="176" d="M-33 0l201 1434h74l-201 -1434h-74zM137 1614h70l43 -148h-43z" />
<glyph unicode="&#xcd;" horiz-adv-x="176" d="M-33 0l201 1434h74l-201 -1434h-74zM168 1466l82 148h72l-109 -148h-45z" />
<glyph unicode="&#xce;" horiz-adv-x="176" d="M-33 0l201 1434h74l-201 -1434h-74zM111 1466l92 148h51l55 -148h-43l-45 90l-65 -90h-45z" />
<glyph unicode="&#xcf;" horiz-adv-x="176" d="M-33 0l201 1434h74l-201 -1434h-74zM121 1503l8 72h64l-9 -72h-63zM244 1503l10 72h61l-8 -72h-63z" />
<glyph unicode="&#xd0;" horiz-adv-x="393" d="M-33 0l101 725h-33l8 59h33l92 650h174q70 0 90.5 -27.5t9.5 -106.5l-163 -1167q-11 -78 -39.5 -105.5t-98.5 -27.5h-174zM49 68h88q39 0 51.5 15.5t18.5 63.5l160 1139q7 48 -1 64t-47 16h-88l-81 -582h79l-8 -59h-80z" />
<glyph unicode="&#xd1;" horiz-adv-x="407" d="M-33 0l201 1434h98l-6 -889q0 -70 -8 -258q15 130 33 256l125 891h63l-201 -1434h-82l7 993q0 178 6 254q-26 -205 -33 -252l-139 -995h-64zM215 1489q7 48 25 67t53 19q25 0 52.5 -18.5t37.5 -18.5q27 0 33 37h35q-7 -50 -24 -68t-52 -18q-26 0 -53.5 18.5t-38.5 18.5 q-26 0 -31 -37h-37z" />
<glyph unicode="&#xd2;" horiz-adv-x="389" d="M-20 123l167 1188q10 78 39.5 105.5t100.5 27.5h53q70 0 91.5 -27.5t10.5 -105.5l-168 -1188q-12 -78 -40.5 -105.5t-98.5 -27.5h-53q-70 0 -91.5 27.5t-10.5 105.5zM56 75q9 -18 48 -18h27q39 0 51.5 16t20.5 64l162 1159q6 47 -2.5 63.5t-47.5 16.5h-26 q-39 0 -51.5 -16t-18.5 -64l-162 -1159q-10 -44 -1 -62zM244 1614h69l43 -148h-43z" />
<glyph unicode="&#xd3;" horiz-adv-x="389" d="M-20 123l167 1188q10 78 39.5 105.5t100.5 27.5h53q70 0 91.5 -27.5t10.5 -105.5l-168 -1188q-12 -78 -40.5 -105.5t-98.5 -27.5h-53q-70 0 -91.5 27.5t-10.5 105.5zM56 75q9 -18 48 -18h27q39 0 51.5 16t20.5 64l162 1159q6 47 -2.5 63.5t-47.5 16.5h-26 q-39 0 -51.5 -16t-18.5 -64l-162 -1159q-10 -44 -1 -62zM274 1466l82 148h72l-109 -148h-45z" />
<glyph unicode="&#xd4;" horiz-adv-x="389" d="M-20 123l167 1188q10 78 39.5 105.5t100.5 27.5h53q70 0 91.5 -27.5t10.5 -105.5l-168 -1188q-12 -78 -40.5 -105.5t-98.5 -27.5h-53q-70 0 -91.5 27.5t-10.5 105.5zM56 75q9 -18 48 -18h27q39 0 51.5 16t20.5 64l162 1159q6 47 -2.5 63.5t-47.5 16.5h-26 q-39 0 -51.5 -16t-18.5 -64l-162 -1159q-10 -44 -1 -62zM215 1466l92 148h51l56 -148h-43l-45 90l-66 -90h-45z" />
<glyph unicode="&#xd5;" horiz-adv-x="389" d="M-20 123l167 1188q10 78 39.5 105.5t100.5 27.5h53q70 0 91.5 -27.5t10.5 -105.5l-168 -1188q-12 -78 -40.5 -105.5t-98.5 -27.5h-53q-70 0 -91.5 27.5t-10.5 105.5zM56 75q9 -18 48 -18h27q39 0 51.5 16t20.5 64l162 1159q6 47 -2.5 63.5t-47.5 16.5h-26 q-39 0 -51.5 -16t-18.5 -64l-162 -1159q-10 -44 -1 -62zM205 1489q7 48 25 67t53 19q25 0 52.5 -18.5t37.5 -18.5q27 0 33 37h34q-7 -50 -23.5 -68t-51.5 -18q-26 0 -54 18.5t-39 18.5q-25 0 -30 -37h-37z" />
<glyph unicode="&#xd6;" horiz-adv-x="389" d="M-20 123l167 1188q10 78 39.5 105.5t100.5 27.5h53q70 0 91.5 -27.5t10.5 -105.5l-168 -1188q-12 -78 -40.5 -105.5t-98.5 -27.5h-53q-70 0 -91.5 27.5t-10.5 105.5zM56 75q9 -18 48 -18h27q39 0 51.5 16t20.5 64l162 1159q6 47 -2.5 63.5t-47.5 16.5h-26 q-39 0 -51.5 -16t-18.5 -64l-162 -1159q-10 -44 -1 -62zM227 1503l9 72h63l-8 -72h-64zM350 1503l10 72h62l-8 -72h-64z" />
<glyph unicode="&#xd7;" d="M49 621l111 98l-80 98l43 41l78 -100l108 100l33 -43l-106 -100l81 -99l-45 -38l-79 100l-107 -100z" />
<glyph unicode="&#xd8;" horiz-adv-x="389" d="M-47 -61l29 94q-10 34 -2 90l167 1188q10 78 39.5 105.5t100.5 27.5h53q23 0 47 -4l19 55h61l-29 -92q13 -26 4 -92l-168 -1188q-10 -78 -39 -105.5t-100 -27.5h-53q-23 0 -51 4l-17 -55h-61zM53 78q9 -21 51 -21h27q39 0 52.5 16.5t19.5 63.5l127 914zM92 395l273 959 q-5 22 -50 22h-26q-39 0 -51.5 -16t-18.5 -64z" />
<glyph unicode="&#xd9;" horiz-adv-x="387" d="M-18 123l184 1311h74l-183 -1297q-6 -48 2 -64t47 -16h27q39 0 51.5 16t20.5 64l180 1297h70l-183 -1311q-12 -78 -40.5 -105.5t-98.5 -27.5h-49q-72 0 -93 27.5t-9 105.5zM244 1614h69l43 -148h-43z" />
<glyph unicode="&#xda;" horiz-adv-x="387" d="M-18 123l184 1311h74l-183 -1297q-6 -48 2 -64t47 -16h27q39 0 51.5 16t20.5 64l180 1297h70l-183 -1311q-12 -78 -40.5 -105.5t-98.5 -27.5h-49q-72 0 -93 27.5t-9 105.5zM274 1466l82 148h72l-109 -148h-45z" />
<glyph unicode="&#xdb;" horiz-adv-x="387" d="M-18 123l184 1311h74l-183 -1297q-6 -48 2 -64t47 -16h27q39 0 51.5 16t20.5 64l180 1297h70l-183 -1311q-12 -78 -40.5 -105.5t-98.5 -27.5h-49q-72 0 -93 27.5t-9 105.5zM215 1466l92 148h51l56 -148h-43l-45 90l-66 -90h-45z" />
<glyph unicode="&#xdc;" horiz-adv-x="387" d="M-18 123l184 1311h74l-183 -1297q-6 -48 2 -64t47 -16h27q39 0 51.5 16t20.5 64l180 1297h70l-183 -1311q-12 -78 -40.5 -105.5t-98.5 -27.5h-49q-72 0 -93 27.5t-9 105.5zM225 1503l8 72h64l-8 -72h-64zM348 1503l10 72h62l-8 -72h-64z" />
<glyph unicode="&#xdd;" horiz-adv-x="342" d="M51 0l72 522l6 912h74l-4 -383q-4 -210 -15 -385q36 169 95 385l102 383h68l-250 -912l-74 -522h-74zM256 1466l82 148h72l-109 -148h-45z" />
<glyph unicode="&#xde;" d="M-33 0l201 1434h74l-15 -95h92q70 0 92 -28t11 -105l-78 -557q-11 -77 -40 -105t-99 -28h-92l-72 -516h-74zM123 584h78q39 0 52 16t19 64l74 528q6 48 -2 64t-47 16h-78z" />
<glyph unicode="&#xdf;" horiz-adv-x="356" d="M-37 0l187 1325q9 68 34.5 93.5t87.5 25.5h56q60 0 77.5 -25t8.5 -92l-39 -278q-8 -53 -24 -79.5t-48 -33.5q30 -9 37.5 -33.5t1.5 -77.5l-96 -706q-9 -68 -35 -93.5t-88 -25.5h-45l6 61h31q32 0 44.5 12t18.5 54l98 709q7 38 0 53.5t-38 15.5h-33l8 62h33q32 0 42.5 14 t16.5 55l39 283q5 40 -1 53.5t-38 13.5h-29q-31 0 -43 -11.5t-18 -53.5l-184 -1321h-68z" />
<glyph unicode="&#xe0;" horiz-adv-x="346" d="M-33 94l51 369q11 78 35 119t88 86q75 53 94.5 80.5t28.5 91.5l35 241q8 40 0.5 56t-41.5 16h-22q-33 0 -44.5 -14.5t-17.5 -57.5l-43 -295h-63l45 310q9 68 34.5 93t88.5 25h43q63 0 81 -24.5t9 -93.5l-140 -992q-10 -64 -6 -104h-63q-6 15 0 59q-26 -69 -101 -69h-20 q-50 0 -65 22t-7 82zM37 119q-5 -40 1.5 -54t37.5 -14h18q59 0 72 88l76 537q-18 -21 -62 -51q-52 -37 -69 -66t-25 -90zM195 1399h69l43 -148h-43z" />
<glyph unicode="&#xe1;" horiz-adv-x="346" d="M-33 94l51 369q11 78 35 119t88 86q75 53 94.5 80.5t28.5 91.5l35 241q8 40 0.5 56t-41.5 16h-22q-33 0 -44.5 -14.5t-17.5 -57.5l-43 -295h-63l45 310q9 68 34.5 93t88.5 25h43q63 0 81 -24.5t9 -93.5l-140 -992q-10 -64 -6 -104h-63q-6 15 0 59q-26 -69 -101 -69h-20 q-50 0 -65 22t-7 82zM37 119q-5 -40 1.5 -54t37.5 -14h18q59 0 72 88l76 537q-18 -21 -62 -51q-52 -37 -69 -66t-25 -90zM225 1251l82 148h72l-109 -148h-45z" />
<glyph unicode="&#xe2;" horiz-adv-x="346" d="M-33 94l51 369q11 78 35 119t88 86q75 53 94.5 80.5t28.5 91.5l35 241q8 40 0.5 56t-41.5 16h-22q-33 0 -44.5 -14.5t-17.5 -57.5l-43 -295h-63l45 310q9 68 34.5 93t88.5 25h43q63 0 81 -24.5t9 -93.5l-140 -992q-10 -64 -6 -104h-63q-6 15 0 59q-26 -69 -101 -69h-20 q-50 0 -65 22t-7 82zM37 119q-5 -40 1.5 -54t37.5 -14h18q59 0 72 88l76 537q-18 -21 -62 -51q-52 -37 -69 -66t-25 -90zM166 1251l92 148h51l56 -148h-43l-46 90l-65 -90h-45z" />
<glyph unicode="&#xe3;" horiz-adv-x="346" d="M-33 94l51 369q11 78 35 119t88 86q75 53 94.5 80.5t28.5 91.5l35 241q8 40 0.5 56t-41.5 16h-22q-33 0 -44.5 -14.5t-17.5 -57.5l-43 -295h-63l45 310q9 68 34.5 93t88.5 25h43q63 0 81 -24.5t9 -93.5l-140 -992q-10 -64 -6 -104h-63q-6 15 0 59q-26 -69 -101 -69h-20 q-50 0 -65 22t-7 82zM37 119q-5 -40 1.5 -54t37.5 -14h18q59 0 72 88l76 537q-18 -21 -62 -51q-52 -37 -69 -66t-25 -90zM156 1274q7 48 24.5 67t52.5 19q25 0 53 -18.5t38 -18.5q26 0 32 37h35q-7 -50 -24 -68t-52 -18q-26 0 -53.5 18.5t-38.5 18.5q-25 0 -30 -37h-37z" />
<glyph unicode="&#xe4;" horiz-adv-x="346" d="M-33 94l51 369q11 78 35 119t88 86q75 53 94.5 80.5t28.5 91.5l35 241q8 40 0.5 56t-41.5 16h-22q-33 0 -44.5 -14.5t-17.5 -57.5l-43 -295h-63l45 310q9 68 34.5 93t88.5 25h43q63 0 81 -24.5t9 -93.5l-140 -992q-10 -64 -6 -104h-63q-6 15 0 59q-26 -69 -101 -69h-20 q-50 0 -65 22t-7 82zM37 119q-5 -40 1.5 -54t37.5 -14h18q59 0 72 88l76 537q-18 -21 -62 -51q-52 -37 -69 -66t-25 -90zM178 1288l8 72h64l-8 -72h-64zM301 1288l10 72h62l-8 -72h-64z" />
<glyph unicode="&#xe5;" horiz-adv-x="346" d="M-33 94l51 369q11 78 35 119t88 86q75 53 94.5 80.5t28.5 91.5l35 241q8 40 0.5 56t-41.5 16h-22q-33 0 -44.5 -14.5t-17.5 -57.5l-43 -295h-63l45 310q9 68 34.5 93t88.5 25h43q63 0 81 -24.5t9 -93.5l-140 -992q-10 -64 -6 -104h-63q-6 15 0 59q-26 -69 -101 -69h-20 q-50 0 -65 22t-7 82zM37 119q-5 -40 1.5 -54t37.5 -14h18q59 0 72 88l76 537q-18 -21 -62 -51q-52 -37 -69 -66t-25 -90zM207 1317q0 38 23 60t55 22q26 0 41.5 -17.5t15.5 -42.5q0 -38 -23 -60t-55 -22q-26 0 -41.5 17.5t-15.5 42.5zM242 1321q0 -12 6.5 -20.5t19.5 -8.5 q16 0 27.5 12t11.5 31q0 12 -6.5 20.5t-19.5 8.5q-16 0 -27.5 -12t-11.5 -31z" />
<glyph unicode="&#xe6;" horiz-adv-x="534" d="M-33 94l51 369q11 78 35 119t88 86q75 53 94.5 80.5t28.5 91.5l35 241q8 40 0.5 56t-41.5 16h-22q-33 0 -44.5 -14.5t-17.5 -57.5l-43 -295h-63l45 310q9 68 35.5 93t89.5 25h18q43 0 63.5 -11.5t24.5 -39.5q12 28 36.5 39.5t68.5 11.5h20q64 0 82.5 -25t9.5 -93 l-72 -510h-192l-66 -463q-6 -43 1 -57.5t42 -14.5h27q33 0 42.5 14t16.5 58l43 301h64l-45 -315q-9 -69 -34.5 -94t-88.5 -25h-45q-50 0 -72.5 14t-23.5 49q-29 -63 -99 -63h-20q-50 0 -65 22t-7 82zM37 119q-5 -40 1.5 -54t37.5 -14h18q59 0 72 88l76 537q-18 -21 -62 -51 q-52 -37 -69 -66t-25 -90zM305 643h129l62 438q8 40 0.5 56t-41.5 16h-27q-33 0 -43.5 -14.5t-17.5 -57.5z" />
<glyph unicode="&#xe7;" horiz-adv-x="346" d="M-27 109l140 987q9 68 35 93t90 25h45q63 0 81 -24.5t9 -93.5l-51 -371h-64l49 356q8 40 0.5 56t-41.5 16h-26q-33 0 -44.5 -14.5t-17.5 -57.5l-135 -958q-6 -42 1.5 -57t41.5 -15h27q33 0 43.5 14.5t17.5 57.5l51 377h64l-53 -391q-9 -68 -35 -93.5t-90 -25.5h-21 l-6 -45q35 0 50.5 -12t15.5 -39q0 -95 -93 -95q-41 0 -55 13t-14 43q0 14 2 22h47q-4 -14 -4 -31q0 -10 5.5 -14t20.5 -4q39 0 39 57q0 31 -30 31h-15l10 74q-62 0 -80.5 25.5t-9.5 93.5z" />
<glyph unicode="&#xe8;" horiz-adv-x="346" d="M-27 109l140 987q9 68 35 93t90 25h45q63 0 81 -24.5t9 -93.5l-70 -510h-194l-66 -463q-6 -42 1.5 -57t41.5 -15h27q33 0 43.5 14.5t17.5 57.5l43 301h64l-45 -315q-11 -69 -36.5 -94t-88.5 -25h-45q-64 0 -83 25.5t-10 93.5zM117 643h131l59 438q8 40 0.5 56t-41.5 16 h-26q-33 0 -44.5 -14.5t-17.5 -57.5zM199 1399h69l43 -148h-43z" />
<glyph unicode="&#xe9;" horiz-adv-x="346" d="M-27 109l140 987q9 68 35 93t90 25h45q63 0 81 -24.5t9 -93.5l-70 -510h-194l-66 -463q-6 -42 1.5 -57t41.5 -15h27q33 0 43.5 14.5t17.5 57.5l43 301h64l-45 -315q-11 -69 -36.5 -94t-88.5 -25h-45q-64 0 -83 25.5t-10 93.5zM117 643h131l59 438q8 40 0.5 56t-41.5 16 h-26q-33 0 -44.5 -14.5t-17.5 -57.5zM229 1251l82 148h72l-109 -148h-45z" />
<glyph unicode="&#xea;" horiz-adv-x="346" d="M-27 109l140 987q9 68 35 93t90 25h45q63 0 81 -24.5t9 -93.5l-70 -510h-194l-66 -463q-6 -42 1.5 -57t41.5 -15h27q33 0 43.5 14.5t17.5 57.5l43 301h64l-45 -315q-11 -69 -36.5 -94t-88.5 -25h-45q-64 0 -83 25.5t-10 93.5zM117 643h131l59 438q8 40 0.5 56t-41.5 16 h-26q-33 0 -44.5 -14.5t-17.5 -57.5zM170 1251l92 148h51l56 -148h-43l-45 90l-66 -90h-45z" />
<glyph unicode="&#xeb;" horiz-adv-x="346" d="M-27 109l140 987q9 68 35 93t90 25h45q63 0 81 -24.5t9 -93.5l-70 -510h-194l-66 -463q-6 -42 1.5 -57t41.5 -15h27q33 0 43.5 14.5t17.5 57.5l43 301h64l-45 -315q-11 -69 -36.5 -94t-88.5 -25h-45q-64 0 -83 25.5t-10 93.5zM117 643h131l59 438q8 40 0.5 56t-41.5 16 h-26q-33 0 -44.5 -14.5t-17.5 -57.5zM182 1288l8 72h64l-8 -72h-64zM305 1288l10 72h62l-8 -72h-64z" />
<glyph unicode="&#xec;" horiz-adv-x="161" d="M-37 0l168 1204h68l-168 -1204h-68zM102 1399h70l43 -148h-43z" />
<glyph unicode="&#xed;" horiz-adv-x="161" d="M-37 0l168 1204h68l-168 -1204h-68zM133 1251l82 148h72l-109 -148h-45z" />
<glyph unicode="&#xee;" horiz-adv-x="161" d="M-37 0l168 1204h68l-168 -1204h-68zM74 1251l92 148h51l55 -148h-43l-45 90l-65 -90h-45z" />
<glyph unicode="&#xef;" horiz-adv-x="161" d="M-37 0l168 1204h68l-168 -1204h-68zM86 1288l8 72h64l-8 -72h-64zM209 1288l10 72h62l-9 -72h-63z" />
<glyph unicode="&#xf0;" horiz-adv-x="364" d="M-27 109l142 1001q8 59 29.5 81.5t72.5 22.5h23q69 0 79 -61l23 158q2 16 2 39l-78 -72l-14 14l86 78q-8 14 -39 14h-35l6 50h43q49 0 74 -19l21 19h26l-35 -33q18 -30 9 -92l-168 -1200q-9 -68 -35 -93.5t-90 -25.5h-49q-64 0 -83 25.5t-10 93.5zM43 123q-6 -42 1.5 -57 t41.5 -15h27q33 0 43.5 14.5t17.5 57.5l131 942q13 88 -47 88h-20q-32 0 -43.5 -14.5t-16.5 -53.5z" />
<glyph unicode="&#xf1;" horiz-adv-x="358" d="M-37 0l168 1204h64l-9 -57q26 67 103 67h22q49 0 64.5 -22.5t7.5 -81.5l-156 -1110h-67l151 1085q5 40 -1 54t-38 14h-18q-63 0 -76 -88l-147 -1065h-68zM162 1274q7 48 25 67t53 19q25 0 52.5 -18.5t37.5 -18.5q26 0 32 37h35q-7 -50 -23.5 -68t-51.5 -18 q-26 0 -54 18.5t-39 18.5q-25 0 -30 -37h-37z" />
<glyph unicode="&#xf2;" horiz-adv-x="352" d="M-27 109l140 987q9 68 35 93t90 25h49q63 0 81 -24.5t9 -93.5l-137 -987q-11 -69 -36.5 -94t-88.5 -25h-49q-64 0 -83 25.5t-10 93.5zM43 123q-6 -42 1.5 -57t41.5 -15h27q33 0 43.5 14.5t17.5 57.5l133 958q8 40 0.5 56t-41.5 16h-26q-33 0 -44.5 -14.5t-17.5 -57.5z M197 1399h69l43 -148h-43z" />
<glyph unicode="&#xf3;" horiz-adv-x="352" d="M-27 109l140 987q9 68 35 93t90 25h49q63 0 81 -24.5t9 -93.5l-137 -987q-11 -69 -36.5 -94t-88.5 -25h-49q-64 0 -83 25.5t-10 93.5zM43 123q-6 -42 1.5 -57t41.5 -15h27q33 0 43.5 14.5t17.5 57.5l133 958q8 40 0.5 56t-41.5 16h-26q-33 0 -44.5 -14.5t-17.5 -57.5z M227 1251l82 148h72l-109 -148h-45z" />
<glyph unicode="&#xf4;" horiz-adv-x="352" d="M-27 109l140 987q9 68 35 93t90 25h49q63 0 81 -24.5t9 -93.5l-137 -987q-11 -69 -36.5 -94t-88.5 -25h-49q-64 0 -83 25.5t-10 93.5zM43 123q-6 -42 1.5 -57t41.5 -15h27q33 0 43.5 14.5t17.5 57.5l133 958q8 40 0.5 56t-41.5 16h-26q-33 0 -44.5 -14.5t-17.5 -57.5z M168 1251l92 148h51l56 -148h-43l-45 90l-66 -90h-45z" />
<glyph unicode="&#xf5;" horiz-adv-x="352" d="M-27 109l140 987q9 68 35 93t90 25h49q63 0 81 -24.5t9 -93.5l-137 -987q-11 -69 -36.5 -94t-88.5 -25h-49q-64 0 -83 25.5t-10 93.5zM43 123q-6 -42 1.5 -57t41.5 -15h27q33 0 43.5 14.5t17.5 57.5l133 958q8 40 0.5 56t-41.5 16h-26q-33 0 -44.5 -14.5t-17.5 -57.5z M158 1274q7 48 25 67t53 19q25 0 52.5 -18.5t37.5 -18.5q26 0 32 37h35q-7 -50 -24 -68t-52 -18q-26 0 -53.5 18.5t-38.5 18.5q-25 0 -30 -37h-37z" />
<glyph unicode="&#xf6;" horiz-adv-x="352" d="M-27 109l140 987q9 68 35 93t90 25h49q63 0 81 -24.5t9 -93.5l-137 -987q-11 -69 -36.5 -94t-88.5 -25h-49q-64 0 -83 25.5t-10 93.5zM43 123q-6 -42 1.5 -57t41.5 -15h27q33 0 43.5 14.5t17.5 57.5l133 958q8 40 0.5 56t-41.5 16h-26q-33 0 -44.5 -14.5t-17.5 -57.5z M180 1288l8 72h64l-8 -72h-64zM303 1288l10 72h62l-8 -72h-64z" />
<glyph unicode="&#xf7;" d="M55 686l8 62h275l-8 -62h-275zM139 561l8 70h70l-8 -70h-70zM172 805l10 67h70l-10 -67h-70z" />
<glyph unicode="&#xf8;" horiz-adv-x="352" d="M-51 -61l28 88q-10 23 -4 82l140 987q9 68 35 93t90 25h49q17 0 41 -4l20 66h55l-30 -96q13 -24 4 -84l-137 -987q-9 -68 -35 -93.5t-90 -25.5h-49q-22 0 -46 4l-16 -55h-55zM41 70q8 -19 45 -19h27q33 0 43.5 14.5t17.5 57.5l105 756zM72 332l237 803q-9 18 -43 18h-26 q-33 0 -44.5 -14.5t-17.5 -57.5z" />
<glyph unicode="&#xf9;" horiz-adv-x="358" d="M-25 94l154 1110h68l-152 -1085q-5 -40 1.5 -54t37.5 -14h20q59 0 72 88l152 1065h67l-153 -1100q-11 -68 -9 -104h-61q-6 15 0 61q-25 -71 -102 -71h-23q-50 0 -65 22t-7 82zM199 1399h69l43 -148h-43z" />
<glyph unicode="&#xfa;" horiz-adv-x="358" d="M-25 94l154 1110h68l-152 -1085q-5 -40 1.5 -54t37.5 -14h20q59 0 72 88l152 1065h67l-153 -1100q-11 -68 -9 -104h-61q-6 15 0 61q-25 -71 -102 -71h-23q-50 0 -65 22t-7 82zM229 1251l82 148h72l-109 -148h-45z" />
<glyph unicode="&#xfb;" horiz-adv-x="358" d="M-25 94l154 1110h68l-152 -1085q-5 -40 1.5 -54t37.5 -14h20q59 0 72 88l152 1065h67l-153 -1100q-11 -68 -9 -104h-61q-6 15 0 61q-25 -71 -102 -71h-23q-50 0 -65 22t-7 82zM172 1251l92 148h51l56 -148h-43l-45 90l-66 -90h-45z" />
<glyph unicode="&#xfc;" horiz-adv-x="358" d="M-25 94l154 1110h68l-152 -1085q-5 -40 1.5 -54t37.5 -14h20q59 0 72 88l152 1065h67l-153 -1100q-11 -68 -9 -104h-61q-6 15 0 61q-25 -71 -102 -71h-23q-50 0 -65 22t-7 82zM182 1288l8 72h64l-8 -72h-64zM305 1288l10 72h62l-8 -72h-64z" />
<glyph unicode="&#xfd;" horiz-adv-x="319" d="M-80 -178l8 57h45q41 0 50 49l6 35l65 1241h68l-27 -540q-13 -263 -41 -543q42 245 111 543l125 540h61l-293 -1284q-12 -53 -39.5 -75.5t-72.5 -22.5h-66zM213 1251l82 148h72l-109 -148h-45z" />
<glyph unicode="&#xfe;" horiz-adv-x="356" d="M-66 -190l230 1624h67l-38 -275q30 55 96 55h22q49 0 64.5 -22.5t7.5 -81.5l-141 -1016q-7 -58 -30 -81t-73 -23h-22q-70 0 -82 57l-33 -237h-68zM49 139q-13 -88 49 -88h21q32 0 42 14t15 54l135 966q8 37 0.5 52.5t-39.5 15.5h-18q-63 0 -76 -88z" />
<glyph unicode="&#xff;" horiz-adv-x="319" d="M-80 -178l8 57h45q41 0 50 49l6 35l65 1241h68l-27 -540q-13 -263 -41 -543q42 245 111 543l125 540h61l-293 -1284q-12 -53 -39.5 -75.5t-72.5 -22.5h-66zM166 1288l8 72h64l-9 -72h-63zM289 1288l10 72h61l-8 -72h-63z" />
<glyph unicode="&#x152;" horiz-adv-x="503" d="M-18 133l163 1167q10 78 39.5 106t100.5 28h309l-8 -68h-152l-82 -580h129l-10 -69h-129l-90 -649h151l-10 -68h-309q-71 0 -92.5 27.5t-9.5 105.5zM57 147q-6 -47 2 -63t47 -16h72l182 1298h-71q-39 0 -52.5 -16.5t-19.5 -63.5z" />
<glyph unicode="&#x153;" horiz-adv-x="544" d="M-27 109l140 987q9 68 35 93t90 25h26q45 0 65 -12.5t23 -42.5q12 30 36 42.5t69 12.5h22q63 0 82 -25t10 -93l-71 -510h-195l-63 -463q-8 -40 -0.5 -56t41.5 -16h26q33 0 44.5 14.5t17.5 57.5l41 301h63l-43 -315q-11 -68 -37 -93.5t-88 -25.5h-22q-45 0 -65 12.5 t-23 42.5q-12 -30 -36 -42.5t-69 -12.5h-26q-64 0 -83 25.5t-10 93.5zM43 123q-6 -42 1.5 -57t41.5 -15h27q33 0 43.5 14.5t17.5 57.5l133 958q8 40 0.5 56t-41.5 16h-26q-33 0 -44.5 -14.5t-17.5 -57.5zM313 643h129l64 438q5 44 -1.5 58t-39.5 14h-27q-35 0 -45.5 -14.5 t-17.5 -57.5z" />
<glyph unicode="&#x178;" horiz-adv-x="342" d="M51 0l72 522l6 912h74l-4 -383q-4 -210 -15 -385q36 169 95 385l102 383h68l-250 -912l-74 -522h-74zM209 1503l8 72h64l-9 -72h-63zM332 1503l10 72h61l-8 -72h-63z" />
<glyph unicode="&#x2c6;" horiz-adv-x="180" d="M82 1251l92 148h51l56 -148h-43l-45 90l-66 -90h-45z" />
<glyph unicode="&#x2dc;" horiz-adv-x="180" d="M72 1274q7 48 25 67t53 19q25 0 52.5 -18.5t37.5 -18.5q26 0 32 37h35q-7 -50 -24 -68t-52 -18q-26 0 -53.5 18.5t-38.5 18.5q-25 0 -30 -37h-37z" />
<glyph unicode="&#x2000;" horiz-adv-x="807" />
<glyph unicode="&#x2001;" horiz-adv-x="1614" />
<glyph unicode="&#x2002;" horiz-adv-x="807" />
<glyph unicode="&#x2003;" horiz-adv-x="1614" />
<glyph unicode="&#x2004;" horiz-adv-x="538" />
<glyph unicode="&#x2005;" horiz-adv-x="403" />
<glyph unicode="&#x2006;" horiz-adv-x="269" />
<glyph unicode="&#x2007;" horiz-adv-x="269" />
<glyph unicode="&#x2008;" horiz-adv-x="201" />
<glyph unicode="&#x2009;" horiz-adv-x="322" />
<glyph unicode="&#x200a;" horiz-adv-x="89" />
<glyph unicode="&#x2010;" horiz-adv-x="235" d="M20 551l11 65h178l-10 -65h-179z" />
<glyph unicode="&#x2011;" horiz-adv-x="235" d="M20 551l11 65h178l-10 -65h-179z" />
<glyph unicode="&#x2012;" horiz-adv-x="235" d="M20 551l11 65h178l-10 -65h-179z" />
<glyph unicode="&#x2013;" horiz-adv-x="1024" d="M-8 551l10 65h1024l-10 -65h-1024z" />
<glyph unicode="&#x2014;" horiz-adv-x="2048" d="M-8 551l10 65h2048l-10 -65h-2048z" />
<glyph unicode="&#x2018;" horiz-adv-x="180" d="M133 1186l14 110l86 138l9 -4l-60 -134h43l-16 -110h-76z" />
<glyph unicode="&#x2019;" horiz-adv-x="180" d="M133 1190l62 133h-43l14 111h78l-15 -111l-88 -137z" />
<glyph unicode="&#x201a;" horiz-adv-x="180" d="M-51 -133l61 133h-43l15 111h77l-14 -111l-88 -137z" />
<glyph unicode="&#x201c;" horiz-adv-x="286" d="M121 1186l14 110l86 138l8 -4l-59 -134h43l-16 -110h-76zM252 1186l16 110l84 138l8 -4l-59 -134h43l-14 -110h-78z" />
<glyph unicode="&#x201d;" horiz-adv-x="286" d="M121 1190l61 133h-43l15 111h77l-14 -111l-88 -137zM252 1190l61 133h-43l15 111h77l-14 -111l-88 -137z" />
<glyph unicode="&#x201e;" horiz-adv-x="286" d="M-63 -133l61 133h-43l14 111h78l-14 -111l-88 -137zM68 -133l61 133h-43l14 111h78l-14 -111l-88 -137z" />
<glyph unicode="&#x2022;" horiz-adv-x="309" d="M59 700q0 54 37 91.5t90 37.5q42 0 68.5 -27t26.5 -69q0 -54 -37 -91.5t-90 -37.5q-42 0 -68.5 27t-26.5 69z" />
<glyph unicode="&#x2026;" horiz-adv-x="419" d="M-45 0l14 111h78l-14 -111h-78zM86 0l14 111h78l-14 -111h-78zM219 0l14 111h78l-14 -111h-78z" />
<glyph unicode="&#x202f;" horiz-adv-x="322" />
<glyph unicode="&#x2039;" horiz-adv-x="198" d="M12 602l174 436h64l-172 -438l49 -434h-64z" />
<glyph unicode="&#x203a;" horiz-adv-x="198" d="M-51 166l174 438l-51 434h63l51 -436l-174 -436h-63z" />
<glyph unicode="&#x205f;" horiz-adv-x="403" />
<glyph unicode="&#x20ac;" d="M-16 115l79 565h-36l6 33h35l12 82h-37l6 34h35l70 490q11 73 37.5 99t93.5 26h45q65 0 84 -26t8 -99l-57 -410h-66l55 396q9 41 0.5 57t-43.5 16h-26q-35 0 -46.5 -14.5t-17.5 -58.5l-67 -476h200l-6 -34h-198l-13 -82h201l-4 -33h-201l-78 -551q-6 -44 1.5 -59 t43.5 -15h25q36 0 47 14.5t18 59.5l66 471h66l-68 -485q-11 -73 -37.5 -99t-91.5 -26h-45q-67 0 -87 26t-9 99z" />
<glyph unicode="&#x2122;" horiz-adv-x="522" d="M61 586l113 798h-55l6 50h166l-6 -50h-56l-112 -798h-56zM213 586l119 848h74l-25 -535q-1 -37 -12 -160q16 96 32 160l125 535h82l-119 -848h-55l78 559q19 123 31 178q-30 -117 -41 -168l-133 -569h-43l20 569q1 27 4 81t4 81q-14 -131 -20 -172l-78 -559h-43z" />
<glyph unicode="&#x25fc;" horiz-adv-x="1208" d="M0 0v1208h1208v-1208h-1208z" />
</font>
</defs>
</svg>
